<svg width="9" height="10" viewBox="0 0 9 10" fill="none" xmlns="http://www.w3.org/2000/svg">
<path fill-rule="evenodd" clip-rule="evenodd" d="M5.21386 1.19355L5.24714 1.14645C5.39133 0.966205 5.61822 0.95234 5.77514 1.10485L5.81282 1.14645L8.61282 4.64645L8.62938 4.66843L8.65145 4.70235L8.68011 4.75797L8.70149 4.81433L8.71564 4.867L8.72722 4.94095L8.72998 5L8.72886 5.03762L8.72188 5.10036L8.71008 5.15607L8.69251 5.21161L8.67158 5.26035L8.6421 5.31272L8.61282 5.35355L5.81282 8.85355C5.65661 9.04882 5.40335 9.04882 5.24714 8.85355C5.10294 8.67331 5.09185 8.3897 5.21386 8.19355L5.24714 8.14645L7.36358 5.5H1.12998C0.909067 5.5 0.72998 5.27614 0.72998 5C0.72998 4.72386 0.909067 4.5 1.12998 4.5H7.36438L5.24714 1.85355C5.10294 1.67331 5.09185 1.3897 5.21386 1.19355L5.24714 1.14645L5.21386 1.19355Z" fill="#4ECCA3"/>
<path d="M5.21386 1.19355L5.24714 1.14645C5.39133 0.966205 5.61822 0.95234 5.77514 1.10485L5.81282 1.14645L8.61282 4.64645L8.62938 4.66843V4.66843L8.65145 4.70235V4.70235L8.68011 4.75797V4.75797L8.70149 4.81433V4.81433L8.71564 4.867V4.867L8.72722 4.94095V4.94095L8.72998 5V5L8.72886 5.03762V5.03762L8.72188 5.10036V5.10036L8.71008 5.15607V5.15607L8.69251 5.21161V5.21161L8.67158 5.26035V5.26035L8.6421 5.31272V5.31272L8.61282 5.35355L5.81282 8.85355C5.65661 9.04882 5.40335 9.04882 5.24714 8.85355C5.10294 8.67331 5.09185 8.3897 5.21386 8.19355L5.24714 8.14645L7.36358 5.5H1.12998C0.909067 5.5 0.72998 5.27614 0.72998 5C0.72998 4.72386 0.909067 4.5 1.12998 4.5H7.36438L5.24714 1.85355C5.10294 1.67331 5.09185 1.3897 5.21386 1.19355L5.24714 1.14645L5.21386 1.19355Z" stroke="#4ECCA3" stroke-width="0.5"/>
</svg>
