<svg width="24" height="24" viewBox="0 0 24 24" fill="none" xmlns="http://www.w3.org/2000/svg">
<path d="M18.7316 6.24C18.2516 6.26667 17.8983 6.32 17.6716 6.4C17.4583 6.48 17.3116 6.63333 17.2316 6.86C17.1516 7.08667 17.1116 7.45333 17.1116 7.96V17.88C17.1116 18.3867 17.1516 18.7533 17.2316 18.98C17.3116 19.2067 17.4583 19.36 17.6716 19.44C17.8983 19.52 18.2516 19.5733 18.7316 19.6V20C18.1716 19.96 17.3183 19.94 16.1716 19.94C15.0916 19.94 14.245 19.96 13.6316 20V19.6C14.1116 19.5733 14.4583 19.52 14.6716 19.44C14.8983 19.36 15.0516 19.2067 15.1316 18.98C15.2116 18.7533 15.2516 18.3867 15.2516 17.88V13.08H8.75164V17.88C8.75164 18.3867 8.79164 18.7533 8.87164 18.98C8.95164 19.2067 9.09831 19.36 9.31164 19.44C9.53831 19.52 9.89164 19.5733 10.3716 19.6V20C9.75831 19.96 8.91164 19.94 7.83164 19.94C6.68497 19.94 5.83164 19.96 5.27164 20V19.6C5.75164 19.5733 6.09831 19.52 6.31164 19.44C6.53831 19.36 6.69164 19.2067 6.77164 18.98C6.85164 18.7533 6.89164 18.3867 6.89164 17.88V7.96C6.89164 7.45333 6.85164 7.08667 6.77164 6.86C6.69164 6.63333 6.53831 6.48 6.31164 6.4C6.09831 6.32 5.75164 6.26667 5.27164 6.24V5.84C5.83164 5.88 6.68497 5.9 7.83164 5.9C8.89831 5.9 9.74497 5.88 10.3716 5.84V6.24C9.89164 6.26667 9.53831 6.32 9.31164 6.4C9.09831 6.48 8.95164 6.63333 8.87164 6.86C8.79164 7.08667 8.75164 7.45333 8.75164 7.96V12.68H15.2516V7.96C15.2516 7.45333 15.2116 7.08667 15.1316 6.86C15.0516 6.63333 14.8983 6.48 14.6716 6.4C14.4583 6.32 14.1116 6.26667 13.6316 6.24V5.84C14.245 5.88 15.0916 5.9 16.1716 5.9C17.3183 5.9 18.1716 5.88 18.7316 5.84V6.24Z" fill="black"/>
</svg>
