<svg width="24" height="24" viewBox="0 0 24 24" fill="none" xmlns="http://www.w3.org/2000/svg">
<path d="M14.3 5.24C13.82 5.26667 13.4667 5.32 13.24 5.4C13.0267 5.48 12.88 5.63333 12.8 5.86C12.72 6.08667 12.68 6.45333 12.68 6.96V16.88C12.68 17.3867 12.72 17.7533 12.8 17.98C12.88 18.2067 13.0267 18.36 13.24 18.44C13.4667 18.52 13.82 18.5733 14.3 18.6V19C13.74 18.96 12.8867 18.94 11.74 18.94C10.66 18.94 9.81333 18.96 9.2 19V18.6C9.68 18.5733 10.0267 18.52 10.24 18.44C10.4667 18.36 10.62 18.2067 10.7 17.98C10.78 17.7533 10.82 17.3867 10.82 16.88V12.08H4.32V16.88C4.32 17.3867 4.36 17.7533 4.44 17.98C4.52 18.2067 4.66667 18.36 4.88 18.44C5.10667 18.52 5.46 18.5733 5.94 18.6V19C5.32667 18.96 4.48 18.94 3.4 18.94C2.25333 18.94 1.4 18.96 0.84 19V18.6C1.32 18.5733 1.66667 18.52 1.88 18.44C2.10667 18.36 2.26 18.2067 2.34 17.98C2.42 17.7533 2.46 17.3867 2.46 16.88V6.96C2.46 6.45333 2.42 6.08667 2.34 5.86C2.26 5.63333 2.10667 5.48 1.88 5.4C1.66667 5.32 1.32 5.26667 0.84 5.24V4.84C1.4 4.88 2.25333 4.9 3.4 4.9C4.46667 4.9 5.31333 4.88 5.94 4.84V5.24C5.46 5.26667 5.10667 5.32 4.88 5.4C4.66667 5.48 4.52 5.63333 4.44 5.86C4.36 6.08667 4.32 6.45333 4.32 6.96V11.68H10.82V6.96C10.82 6.45333 10.78 6.08667 10.7 5.86C10.62 5.63333 10.4667 5.48 10.24 5.4C10.0267 5.32 9.68 5.26667 9.2 5.24V4.84C9.81333 4.88 10.66 4.9 11.74 4.9C12.8867 4.9 13.74 4.88 14.3 4.84V5.24Z" fill="black"/>
<path d="M23.539 10.744C23.251 10.76 23.039 10.792 22.903 10.84C22.775 10.888 22.687 10.98 22.639 11.116C22.591 11.252 22.567 11.472 22.567 11.776V17.728C22.567 18.032 22.591 18.252 22.639 18.388C22.687 18.524 22.775 18.616 22.903 18.664C23.039 18.712 23.251 18.744 23.539 18.76V19C23.203 18.976 22.691 18.964 22.003 18.964C21.355 18.964 20.847 18.976 20.479 19V18.76C20.767 18.744 20.975 18.712 21.103 18.664C21.239 18.616 21.331 18.524 21.379 18.388C21.427 18.252 21.451 18.032 21.451 17.728V14.848H17.551V17.728C17.551 18.032 17.575 18.252 17.623 18.388C17.671 18.524 17.759 18.616 17.887 18.664C18.023 18.712 18.235 18.744 18.523 18.76V19C18.155 18.976 17.647 18.964 16.999 18.964C16.311 18.964 15.799 18.976 15.463 19V18.76C15.751 18.744 15.959 18.712 16.087 18.664C16.223 18.616 16.315 18.524 16.363 18.388C16.411 18.252 16.435 18.032 16.435 17.728V11.776C16.435 11.472 16.411 11.252 16.363 11.116C16.315 10.98 16.223 10.888 16.087 10.84C15.959 10.792 15.751 10.76 15.463 10.744V10.504C15.799 10.528 16.311 10.54 16.999 10.54C17.639 10.54 18.147 10.528 18.523 10.504V10.744C18.235 10.76 18.023 10.792 17.887 10.84C17.759 10.888 17.671 10.98 17.623 11.116C17.575 11.252 17.551 11.472 17.551 11.776V14.608H21.451V11.776C21.451 11.472 21.427 11.252 21.379 11.116C21.331 10.98 21.239 10.888 21.103 10.84C20.975 10.792 20.767 10.76 20.479 10.744V10.504C20.847 10.528 21.355 10.54 22.003 10.54C22.691 10.54 23.203 10.528 23.539 10.504V10.744Z" fill="black"/>
</svg>
