<svg width="24" height="24" viewBox="0 0 24 24" fill="none" xmlns="http://www.w3.org/2000/svg">
<path d="M17.1291 5.84C17.0357 6.78667 16.9891 7.64 16.9891 8.4C16.9891 9.06667 17.0091 9.61333 17.0491 10.04H16.5891C16.4824 9.01333 16.3491 8.25333 16.1891 7.76C16.0291 7.25333 15.7491 6.88667 15.3491 6.66C14.9491 6.42 14.3357 6.3 13.5091 6.3H12.4291V17.68C12.4291 18.24 12.4824 18.6467 12.5891 18.9C12.6957 19.1533 12.8824 19.3267 13.1491 19.42C13.4157 19.5133 13.8491 19.5733 14.4491 19.6V20C13.7557 19.96 12.7757 19.94 11.5091 19.94C10.1757 19.94 9.18906 19.96 8.54906 20V19.6C9.14906 19.5733 9.5824 19.5133 9.84906 19.42C10.1157 19.3267 10.3024 19.1533 10.4091 18.9C10.5157 18.6467 10.5691 18.24 10.5691 17.68V6.3H9.48906C8.6624 6.3 8.04906 6.42 7.64906 6.66C7.24906 6.88667 6.96906 7.25333 6.80906 7.76C6.64906 8.25333 6.51573 9.01333 6.40906 10.04H5.94906C5.98906 9.61333 6.00906 9.06667 6.00906 8.4C6.00906 7.64 5.9624 6.78667 5.86906 5.84C6.97573 5.88 8.85573 5.9 11.5091 5.9C14.1491 5.9 16.0224 5.88 17.1291 5.84Z" fill="black"/>
</svg>
