<svg width="24" height="24" viewBox="0 0 24 24" fill="none" xmlns="http://www.w3.org/2000/svg">
<path d="M16.208 5.008C16.096 6.144 16.04 7.168 16.04 8.08C16.04 8.88 16.064 9.536 16.112 10.048H15.56C15.432 8.816 15.272 7.904 15.08 7.312C14.888 6.704 14.552 6.264 14.072 5.992C13.592 5.704 12.856 5.56 11.864 5.56H10.568V19.216C10.568 19.888 10.632 20.376 10.76 20.68C10.888 20.984 11.112 21.192 11.432 21.304C11.752 21.416 12.272 21.488 12.992 21.52V22C12.16 21.952 10.984 21.928 9.464 21.928C7.864 21.928 6.68 21.952 5.912 22V21.52C6.632 21.488 7.152 21.416 7.472 21.304C7.792 21.192 8.016 20.984 8.144 20.68C8.272 20.376 8.336 19.888 8.336 19.216V5.56H7.04C6.048 5.56 5.312 5.704 4.832 5.992C4.352 6.264 4.016 6.704 3.824 7.312C3.632 7.904 3.472 8.816 3.344 10.048H2.792C2.84 9.536 2.864 8.88 2.864 8.08C2.864 7.168 2.808 6.144 2.696 5.008C4.024 5.056 6.28 5.08 9.464 5.08C12.632 5.08 14.88 5.056 16.208 5.008Z" fill="black"/>
<path d="M21.5033 10.672C21.4286 11.4293 21.3913 12.112 21.3913 12.72C21.3913 13.2533 21.4073 13.6907 21.4392 14.032H21.0712C20.9859 13.2107 20.8793 12.6027 20.7513 12.208C20.6233 11.8027 20.3993 11.5093 20.0793 11.328C19.7593 11.136 19.2686 11.04 18.6073 11.04H17.7433V20.144C17.7433 20.592 17.7859 20.9173 17.8713 21.12C17.9566 21.3227 18.1059 21.4613 18.3193 21.536C18.5326 21.6107 18.8793 21.6587 19.3593 21.68V22C18.8046 21.968 18.0206 21.952 17.0073 21.952C15.9406 21.952 15.1513 21.968 14.6393 22V21.68C15.1193 21.6587 15.4659 21.6107 15.6793 21.536C15.8926 21.4613 16.0419 21.3227 16.1273 21.12C16.2126 20.9173 16.2552 20.592 16.2552 20.144V11.04H15.3913C14.7299 11.04 14.2393 11.136 13.9193 11.328C13.5993 11.5093 13.3753 11.8027 13.2473 12.208C13.1193 12.6027 13.0126 13.2107 12.9273 14.032H12.5592C12.5913 13.6907 12.6073 13.2533 12.6073 12.72C12.6073 12.112 12.5699 11.4293 12.4953 10.672C13.3806 10.704 14.8846 10.72 17.0073 10.72C19.1193 10.72 20.6179 10.704 21.5033 10.672Z" fill="black"/>
</svg>
