<svg width="24" height="24" viewBox="0 0 24 24" fill="none" xmlns="http://www.w3.org/2000/svg">
<path fill-rule="evenodd" clip-rule="evenodd" d="M4.3546 12.5252L3.38722 9.86738C3.19833 9.3484 3.46592 8.77456 3.9849 8.58567C4.46395 8.41131 4.98976 8.6259 5.21639 9.06813L5.26661 9.18334L5.41855 9.60501C5.49023 9.41506 5.56934 9.22717 5.65584 9.04167C7.52309 5.03735 12.2829 3.30491 16.2873 5.17216C20.2916 7.0394 22.024 11.7992 20.1568 15.8036C18.2895 19.8079 13.5297 21.5403 9.52536 19.6731C9.02482 19.4397 8.80826 18.8447 9.04167 18.3442C9.27508 17.8436 9.87006 17.6271 10.3706 17.8605C13.3738 19.2609 16.9437 17.9616 18.3442 14.9583C19.7446 11.9551 18.4453 8.38521 15.442 6.98477C12.4388 5.58434 8.86889 6.88367 7.46846 9.88691C7.3894 10.0564 7.31861 10.2285 7.2561 10.4025L7.61013 10.2761C8.12911 10.0873 8.70295 10.3548 8.89184 10.8738C9.0662 11.3529 8.85161 11.8787 8.40938 12.1053L8.29417 12.1555L5.63632 13.1229C5.15726 13.2973 4.63145 13.0827 4.40483 12.6404L4.3546 12.5252L3.38722 9.86738L4.3546 12.5252Z" fill="#FFFFFF" fill-opacity="0.6"/>
</svg>
