<svg width="24" height="24" viewBox="0 0 24 24" fill="none" xmlns="http://www.w3.org/2000/svg">
<path fill-rule="evenodd" clip-rule="evenodd" d="M12 19.7982L20.4453 14.168C20.9048 13.8616 21.5257 13.9858 21.8321 14.4453C22.1165 14.872 22.0298 15.4378 21.648 15.7618L21.5547 15.8321L12.5547 21.8321C12.2561 22.0311 11.8772 22.0532 11.5608 21.8984L11.4453 21.8321L2.4453 15.8321C1.98577 15.5257 1.8616 14.9048 2.16795 14.4453C2.45242 14.0186 3.00808 13.881 3.45393 14.1089L3.5547 14.168L12 19.7982L20.4453 14.168L12 19.7982ZM12.2773 2.58397C12.1094 2.47201 11.8906 2.47201 11.7227 2.58397L2.72265 8.58397C2.42578 8.78189 2.42578 9.21811 2.72265 9.41603L11.7227 15.416C11.8906 15.528 12.1094 15.528 12.2773 15.416L21.2774 9.41603C21.5742 9.21811 21.5742 8.78189 21.2774 8.58397L12.2773 2.58397ZM11.1679 1.75192C11.6718 1.41603 12.3282 1.41603 12.8321 1.75192L21.8321 7.75192C22.7227 8.34566 22.7227 9.65434 21.8321 10.2481L12.8321 16.2481C12.3282 16.584 11.6718 16.584 11.1679 16.2481L2.16795 10.2481C1.27735 9.65434 1.27735 8.34566 2.16795 7.75192L11.1679 1.75192ZM12 4.20185L4.80278 9L12 13.7981L19.1972 9L12 4.20185Z" fill="#6CABBF"/>
</svg>
