<svg width="15" height="15" viewBox="0 0 15 15" fill="none" xmlns="http://www.w3.org/2000/svg">
<path d="M0 2.5C0 1.11929 1.11929 0 2.5 0H12.5C13.8807 0 15 1.11929 15 2.5V12.5C15 13.8807 13.8807 15 12.5 15H2.5C1.11929 15 0 13.8807 0 12.5V2.5Z" fill="#4ECCA3"/>
<path d="M2.4216 7.28541C2.31362 6.90395 2.5376 6.51571 2.92188 6.41825C3.30616 6.32079 3.70523 6.55102 3.81322 6.93247L4.91368 10.8198C5.02167 11.2012 4.79769 11.5895 4.41341 11.6869C4.02912 11.7844 3.63006 11.5542 3.52207 11.1727L2.4216 7.28541Z" fill="white"/>
<path d="M11.167 3.48297C11.4488 3.21623 11.9057 3.21623 12.1875 3.48297C12.4686 3.74904 12.4694 4.18019 12.1893 4.4472L4.80962 11.4817C4.51306 11.7644 4.02745 11.7564 3.74144 11.4641C3.47116 11.1879 3.47983 10.7589 3.76108 10.4927L11.167 3.48297Z" fill="white"/>
</svg>
